# xmcd
#
# Track frame offsets: 
#        150
#        12680
#        23492
#        38200
#        50347
#        61537
#        74065
#        86760
#        98805
#        108612
#        118997
#        126710
#        139457
#        150405
#        163112
#        172262
#        184642
#        195427
#        206982
#        220787
#        234885
#        246370
#        256327
#        267957
#        278175
#        290185
#
# Disc length: 4011 seconds
#
# Revision: 0
# Processed by: cddbd v1.5.2PL0 Copyright (c) Steve Scherf et al.
# Submitted via: ExactAudioCopy v0.99pb4
#
DISCID=960fa91a
DTITLE=Various Artist - Bay Area Blues Blasters Vol. 1
DYEAR=1965
DGENRE=Blues
TTITLE0=Johnny Heartsman - Johhny's House Party, Part 1
TTITLE1=Johnny Heartsman - Johhny's House Party, Part 2
TTITLE2=Tiny Powell - My time After While
TTITLE3=Tommy Harris - My Conscious Is Bothering Me
TTITLE4=Johnny Heartsman - Johhny's Blue Mood
TTITLE5=Jesse James - I Wanna Full Time Love
TTITLE6=Jesse James - I Call On You
TTITLE7=Johnny Heartsman - One More Time
TTITLE8=Ray Agee - The Monkey On My Back
TTITLE9=Johnny Heartsman - Sizzling
TTITLE10=Rudy Lambert - Love
TTITLE11=Tiny Powell - Done Made It Over
TTITLE12=Jimmy Liggins - Blues For Love
TTITLE13=Johnny Heartsman - Besame Mucho, Part 1
TTITLE14=Johnny Heartsman - Besame Mucho, Part 2
TTITLE15=Joe Simon - I Keep Remembering
TTITLE16=Joe Simon - Troubles
TTITLE17=Johnny Heartsman - Johnny's Thunderbird
TTITLE18=Tiny Powell - That Was Yesterday
TTITLE19=Jesse James - A Love Like The Wind
TTITLE20=Lacy Stewart - Lightning Flashing
TTITLE21=Johnny Heartsman - Syrup Soppin'
TTITLE22=Ray Agee - Love Is A Cold Shot
TTITLE23=Rudy Lambert - I'll Do It
TTITLE24=Tiny Powell - Get My Hat
TTITLE25=Eugene Blacknell - Jump Back
EXTD=
EXTT0=
EXTT1=
EXTT2=
EXTT3=
EXTT4=
EXTT5=
EXTT6=
EXTT7=
EXTT8=
EXTT9=
EXTT10=
EXTT11=
EXTT12=
EXTT13=
EXTT14=
EXTT15=
EXTT16=
EXTT17=
EXTT18=
EXTT19=
EXTT20=
EXTT21=
EXTT22=
EXTT23=
EXTT24=
EXTT25=
PLAYORDER=
